<svg width="1200" height="720" viewBox="0 0 1200 720" fill="none" xmlns="http://www.w3.org/2000/svg">
  <rect width="1200" height="720" fill="#080304"/>
  <circle cx="176" cy="132" r="154" fill="#DC2626" fill-opacity="0.22"/>
  <circle cx="1018" cy="566" r="186" fill="#7F1D1D" fill-opacity="0.2"/>
  <rect x="60" y="60" width="1080" height="600" rx="32" fill="#120708" stroke="#3F0D12"/>
  <text x="96" y="148" fill="#FECACA" font-family="Arial, sans-serif" font-size="24" font-weight="700" letter-spacing="5">PUBLIC HEALTH AI CASE STUDY</text>
  <text x="96" y="230" fill="white" font-family="Arial, sans-serif" font-size="54" font-weight="700">Participatory Disease</text>
  <text x="96" y="294" fill="white" font-family="Arial, sans-serif" font-size="54" font-weight="700">Surveillance Platform</text>
  <text x="96" y="360" fill="#CBD5E1" font-family="Arial, sans-serif" font-size="28">Symptom reporting, risk prediction, GIS hotspot mapping, and early warning alerts</text>

  <rect x="712" y="142" width="330" height="174" rx="24" fill="#1A0B0C" stroke="#7F1D1D"/>
  <rect x="712" y="354" width="330" height="194" rx="24" fill="#1A0B0C" stroke="#991B1B"/>
  <rect x="742" y="182" width="118" height="20" rx="10" fill="#7F1D1D"/>
  <rect x="742" y="220" width="180" height="18" rx="9" fill="#F87171" fill-opacity="0.8"/>
  <rect x="742" y="252" width="146" height="18" rx="9" fill="#FB7185" fill-opacity="0.8"/>
  <rect x="742" y="284" width="200" height="18" rx="9" fill="#FCA5A5" fill-opacity="0.8"/>

  <path d="M776 483C812 441 848 417 885 417C920 417 951 438 985 474" stroke="#F87171" stroke-width="6" stroke-linecap="round"/>
  <path d="M800 476L831 508L905 430L952 468L989 413" stroke="#FB7185" stroke-width="6" stroke-linecap="round" stroke-linejoin="round"/>
  <circle cx="831" cy="508" r="8" fill="#FCA5A5"/>
  <circle cx="905" cy="430" r="8" fill="#F87171"/>
  <circle cx="952" cy="468" r="8" fill="#FB7185"/>
  <circle cx="989" cy="413" r="8" fill="#EF4444"/>

  <circle cx="260" cy="500" r="84" fill="#140809" stroke="#7F1D1D"/>
  <path d="M260 450V550" stroke="#FCA5A5" stroke-width="10" stroke-linecap="round"/>
  <path d="M210 500H310" stroke="#FCA5A5" stroke-width="10" stroke-linecap="round"/>
  <circle cx="340" cy="432" r="16" fill="#EF4444"/>
  <circle cx="390" cy="494" r="12" fill="#FB7185"/>
  <circle cx="332" cy="550" r="14" fill="#F87171"/>
</svg>
