<svg width="1200" height="720" viewBox="0 0 1200 720" fill="none" xmlns="http://www.w3.org/2000/svg">
  <rect width="1200" height="720" fill="#07111F"/>
  <circle cx="1026" cy="151" r="172" fill="#0891B2" fill-opacity="0.2"/>
  <rect x="60" y="60" width="1080" height="600" rx="32" fill="#0B1A2B" stroke="#1E293B"/>
  <text x="96" y="148" fill="#99F6E4" font-family="Arial, sans-serif" font-size="24" font-weight="700" letter-spacing="5">ENVIRONMENTAL GIS</text>
  <text x="96" y="246" fill="white" font-family="Arial, sans-serif" font-size="62" font-weight="700">Groundwater Quality</text>
  <text x="96" y="318" fill="white" font-family="Arial, sans-serif" font-size="62" font-weight="700">Index Mapping</text>
  <text x="96" y="392" fill="#B6C2D2" font-family="Arial, sans-serif" font-size="28">Remote sensing and spatial modeling for contamination risk insight</text>
  <path d="M738 218C779 188 840 173 905 179C976 186 1043 221 1082 284" stroke="#67E8F9" stroke-width="5"/>
  <path d="M724 326C771 301 830 296 889 304C970 315 1040 365 1087 441" stroke="#5EEAD4" stroke-width="5"/>
  <path d="M716 438C776 425 848 430 918 454C989 478 1045 521 1084 575" stroke="#2DD4BF" stroke-width="5"/>
  <circle cx="903" cy="179" r="8" fill="#67E8F9"/>
  <circle cx="1040" cy="367" r="8" fill="#5EEAD4"/>
  <circle cx="920" cy="454" r="8" fill="#2DD4BF"/>
</svg>
