<svg width="1200" height="720" viewBox="0 0 1200 720" fill="none" xmlns="http://www.w3.org/2000/svg">
  <rect width="1200" height="720" fill="#080304"/>
  <circle cx="194" cy="132" r="150" fill="#DC2626" fill-opacity="0.22"/>
  <circle cx="1018" cy="554" r="182" fill="#7F1D1D" fill-opacity="0.2"/>
  <rect x="60" y="60" width="1080" height="600" rx="32" fill="#120708" stroke="#3F0D12"/>
  <text x="96" y="146" fill="#FECACA" font-family="Arial, sans-serif" font-size="24" font-weight="700" letter-spacing="5">WEARABLE AI HEALTH CASE STUDY</text>
  <text x="96" y="228" fill="white" font-family="Arial, sans-serif" font-size="54" font-weight="700">Wearable Health Risk</text>
  <text x="96" y="292" fill="white" font-family="Arial, sans-serif" font-size="54" font-weight="700">Prediction System</text>
  <text x="96" y="358" fill="#CBD5E1" font-family="Arial, sans-serif" font-size="28">Smartwatch-style biomarkers, Random Forest prediction, and personal health insights</text>
  <rect x="724" y="150" width="314" height="176" rx="24" fill="#1A0B0C" stroke="#7F1D1D"/>
  <rect x="724" y="364" width="314" height="170" rx="24" fill="#1A0B0C" stroke="#991B1B"/>
  <rect x="752" y="188" width="130" height="18" rx="9" fill="#7F1D1D"/>
  <rect x="752" y="224" width="202" height="18" rx="9" fill="#F87171" fill-opacity="0.86"/>
  <rect x="752" y="258" width="166" height="18" rx="9" fill="#FB7185" fill-opacity="0.82"/>
  <path d="M771 484L819 446L865 468L914 408L967 430L1003 392" stroke="#F87171" stroke-width="6" stroke-linecap="round" stroke-linejoin="round"/>
  <circle cx="819" cy="446" r="8" fill="#FCA5A5"/>
  <circle cx="914" cy="408" r="8" fill="#FB7185"/>
  <circle cx="1003" cy="392" r="8" fill="#EF4444"/>
  <rect x="228" y="448" width="140" height="162" rx="28" fill="#140809" stroke="#7F1D1D"/>
  <rect x="256" y="478" width="84" height="18" rx="9" fill="#FCA5A5"/>
  <path d="M270 548C282 524 296 514 311 514C327 514 338 524 350 548" stroke="#F87171" stroke-width="8" stroke-linecap="round"/>
  <path d="M304 514V566" stroke="#F87171" stroke-width="8" stroke-linecap="round"/>
  <circle cx="436" cy="488" r="14" fill="#EF4444"/>
  <circle cx="470" cy="530" r="12" fill="#FB7185"/>
  <circle cx="428" cy="572" r="15" fill="#F87171"/>
</svg>
